<svg width="231" height="150" viewBox="0 0 231 150" fill="none" xmlns="http://www.w3.org/2000/svg">
<g clip-path="url(#clip0_101_9)">
<path d="M94.9922 24.4609H116.232C120.578 24.4609 124.68 25.0225 128.537 26.1455C132.395 27.2686 135.739 28.9531 138.571 31.1992C141.452 33.4453 143.698 36.2529 145.31 39.6221C146.921 42.9424 147.727 46.8242 147.727 51.2676C147.727 53.5625 147.434 55.6377 146.848 57.4932C146.213 59.3975 145.407 61.1064 144.431 62.6201C143.503 64.1338 142.478 65.4521 141.354 66.5752C140.134 67.7471 138.693 68.9189 137.033 70.0908C135.422 71.2627 134.201 71.9707 133.371 72.2148C136.203 72.9961 138.669 74.0459 140.769 75.3643C142.771 76.6826 144.431 78.123 145.749 79.6855C147.116 81.1992 148.19 82.7617 148.972 84.373C149.997 86.668 150.656 88.8652 150.949 90.9648C151.242 93.0645 151.389 94.9199 151.389 96.5312C151.389 100.34 150.925 103.685 149.997 106.565C149.069 109.446 147.849 111.961 146.335 114.109C144.821 116.209 143.088 118.016 141.135 119.529C139.182 121.043 137.204 122.264 135.202 123.191C130.515 125.438 125.119 126.707 119.016 127H94.9922C91.4766 127 88.9375 126.268 87.375 124.803C85.8125 123.338 84.8359 121.336 84.4453 118.797C84.0547 116.258 83.8594 113.377 83.8594 110.154V41.1602C83.8594 37.9863 84.0547 35.1543 84.4453 32.6641C84.8359 30.125 85.8125 28.123 87.375 26.6582C88.9375 25.1934 91.4766 24.4609 94.9922 24.4609ZM114.914 41.7461H106.125V66.6484H115.5C117.502 66.5996 119.382 66.1113 121.14 65.1836C122.8 64.3535 124.143 63.1084 125.168 61.4482C126.242 59.7393 126.779 57.5664 126.779 54.9297C126.779 51.9023 126.218 49.4854 125.095 47.6787C123.972 45.8721 122.556 44.4561 120.847 43.4307C119.187 42.5518 117.209 41.9902 114.914 41.7461ZM116.232 82.1758H106.125V109.715H116.818C118.967 109.666 121.018 109.129 122.971 108.104C124.777 107.225 126.242 105.833 127.365 103.929C128.537 101.976 129.123 99.5098 129.123 96.5312C129.123 93.3574 128.513 90.7451 127.292 88.6943C126.071 86.6436 124.533 85.0811 122.678 84.0068C120.822 83.0303 118.674 82.4199 116.232 82.1758Z" fill="#ffffff"/>
</g>
<defs>
<clipPath id="clip0_101_9">
<rect width="231" height="150" fill="white"/>
</clipPath>
</defs>
</svg>
