<svg width="231" height="150" viewBox="0 0 231 150" fill="none" xmlns="http://www.w3.org/2000/svg">
<g clip-path="url(#clip0_104_4)">
<g filter="url(#filter0_d_104_4)">
<path d="M80.2703 124.28C76.257 124.28 74.2503 123.487 74.2503 121.9C74.2503 121.62 74.297 121.34 74.3903 121.06C74.4836 120.687 74.577 120.313 74.6703 119.94L107.85 27.96C108.317 26.4667 110.184 25.72 113.45 25.72H117.51C120.777 25.72 122.644 26.4667 123.11 27.96L156.29 120.08C156.57 120.733 156.71 121.34 156.71 121.9C156.71 123.487 154.704 124.28 150.69 124.28H149.57C148.17 124.28 146.957 124.14 145.93 123.86C144.904 123.487 144.25 122.88 143.97 122.04L135.71 99.08H94.5503L86.5703 122.04C86.2903 122.88 85.637 123.487 84.6103 123.86C83.5836 124.14 82.3703 124.28 80.9703 124.28H80.2703ZM98.4703 88.44H131.93L117.23 46.72C116.857 45.4133 116.53 44.06 116.25 42.66C115.97 41.26 115.737 39.9067 115.55 38.6H115.27C114.99 39.9067 114.664 41.26 114.29 42.66C114.01 44.06 113.637 45.4133 113.17 46.72L98.4703 88.44Z" fill="red"/>
<path d="M74.3903 121.06L76.2877 121.692L76.312 121.62L76.3306 121.545L74.3903 121.06ZM74.6703 119.94L72.789 119.261L72.7546 119.357L72.73 119.455L74.6703 119.94ZM107.85 27.96L109.732 28.6386L109.746 28.5979L109.759 28.5565L107.85 27.96ZM123.11 27.96L121.201 28.5565L121.214 28.5974L121.229 28.6377L123.11 27.96ZM156.29 120.08L154.409 120.758L154.429 120.813L154.452 120.868L156.29 120.08ZM145.93 123.86L145.247 125.74L145.324 125.768L145.404 125.79L145.93 123.86ZM143.97 122.04L145.868 121.408L145.86 121.385L145.852 121.363L143.97 122.04ZM135.71 99.08L137.592 98.403L137.116 97.08H135.71V99.08ZM94.5503 99.08V97.08H93.1281L92.6612 98.4234L94.5503 99.08ZM86.5703 122.04L84.6812 121.383L84.677 121.395L84.6729 121.408L86.5703 122.04ZM84.6103 123.86L85.1365 125.79L85.2162 125.768L85.2938 125.74L84.6103 123.86ZM98.4703 88.44L96.584 87.7754L95.6451 90.44H98.4703V88.44ZM131.93 88.44V90.44H134.756L133.817 87.7754L131.93 88.44ZM117.23 46.72L115.307 47.2694L115.324 47.3276L115.344 47.3846L117.23 46.72ZM116.25 42.66L114.289 43.0522L114.289 43.0522L116.25 42.66ZM115.55 38.6L117.53 38.3172L117.285 36.6H115.55V38.6ZM115.27 38.6V36.6H113.653L113.315 38.1809L115.27 38.6ZM114.29 42.66L112.358 42.1447L112.342 42.2058L112.329 42.2678L114.29 42.66ZM113.17 46.72L111.287 46.0473L111.284 46.0553L113.17 46.72ZM80.2703 122.28C78.3368 122.28 77.1372 122.081 76.4906 121.825C76.184 121.704 76.1267 121.618 76.1556 121.652C76.2153 121.723 76.2503 121.835 76.2503 121.9H72.2503C72.2503 122.759 72.5362 123.565 73.0975 124.23C73.6281 124.86 74.3233 125.269 75.02 125.545C76.3801 126.083 78.1905 126.28 80.2703 126.28V122.28ZM76.2503 121.9C76.2503 121.846 76.2586 121.78 76.2877 121.692L72.4929 120.428C72.3353 120.9 72.2503 121.394 72.2503 121.9H76.2503ZM76.3306 121.545C76.4239 121.172 76.5173 120.798 76.6106 120.425L72.73 119.455C72.6367 119.828 72.5434 120.202 72.45 120.575L76.3306 121.545ZM76.5516 120.619L109.732 28.6386L105.969 27.2813L72.789 119.261L76.5516 120.619ZM109.759 28.5565C109.764 28.5404 109.796 28.3558 110.343 28.1369C110.938 27.8988 111.932 27.72 113.45 27.72V23.72C111.702 23.72 110.129 23.9145 108.858 24.423C107.538 24.9508 106.403 25.8863 105.941 27.3634L109.759 28.5565ZM113.45 27.72H117.51V23.72H113.45V27.72ZM117.51 27.72C119.028 27.72 120.022 27.8988 120.618 28.1369C121.165 28.3558 121.196 28.5404 121.201 28.5565L125.019 27.3634C124.558 25.8863 123.423 24.9508 122.103 24.423C120.832 23.9145 119.259 23.72 117.51 23.72V27.72ZM121.229 28.6377L154.409 120.758L158.172 119.402L124.992 27.2823L121.229 28.6377ZM154.452 120.868C154.653 121.337 154.71 121.673 154.71 121.9H158.71C158.71 121.007 158.488 120.13 158.129 119.292L154.452 120.868ZM154.71 121.9C154.71 121.835 154.745 121.723 154.805 121.652C154.834 121.618 154.777 121.704 154.47 121.825C153.823 122.081 152.624 122.28 150.69 122.28V126.28C152.77 126.28 154.581 126.083 155.941 125.545C156.637 125.269 157.333 124.86 157.863 124.23C158.424 123.565 158.71 122.759 158.71 121.9H154.71ZM150.69 122.28H149.57V126.28H150.69V122.28ZM149.57 122.28C148.296 122.28 147.268 122.152 146.457 121.93L145.404 125.79C146.646 126.128 148.045 126.28 149.57 126.28V122.28ZM146.614 121.98C146.013 121.762 145.91 121.534 145.868 121.408L142.073 122.672C142.591 124.226 143.794 125.211 145.247 125.74L146.614 121.98ZM145.852 121.363L137.592 98.403L133.828 99.757L142.088 122.717L145.852 121.363ZM135.71 97.08H94.5503V101.08H135.71V97.08ZM92.6612 98.4234L84.6812 121.383L88.4595 122.697L96.4395 99.7366L92.6612 98.4234ZM84.6729 121.408C84.6308 121.534 84.5277 121.762 83.9268 121.98L85.2938 125.74C86.7463 125.211 87.9498 124.226 88.4677 122.672L84.6729 121.408ZM84.0841 121.93C83.2731 122.152 82.245 122.28 80.9703 122.28V126.28C82.4956 126.28 83.8942 126.128 85.1365 125.79L84.0841 121.93ZM80.9703 122.28H80.2703V126.28H80.9703V122.28ZM98.4703 90.44H131.93V86.44H98.4703V90.44ZM133.817 87.7754L119.117 46.0553L115.344 47.3846L130.044 89.1046L133.817 87.7754ZM119.153 46.1706C118.796 44.9183 118.481 43.6175 118.211 42.2678L114.289 43.0522C114.579 44.5025 114.918 45.9084 115.307 47.2694L119.153 46.1706ZM118.211 42.2678C117.938 40.9011 117.711 39.5844 117.53 38.3172L113.57 38.8828C113.763 40.229 114.002 41.6189 114.289 43.0522L118.211 42.2678ZM115.55 36.6H115.27V40.6H115.55V36.6ZM113.315 38.1809C113.042 39.4528 112.723 40.7739 112.358 42.1447L116.223 43.1753C116.604 41.7461 116.938 40.3606 117.226 39.0191L113.315 38.1809ZM112.329 42.2678C112.068 43.5753 111.72 44.8347 111.287 46.0473L115.054 47.3927C115.554 45.9919 115.953 44.5447 116.251 43.0522L112.329 42.2678ZM111.284 46.0553L96.584 87.7754L100.357 89.1046L115.057 47.3846L111.284 46.0553Z" fill="red"/>
</g>
</g>
<defs>
<filter id="filter0_d_104_4" x="70.25" y="25.72" width="90.46" height="106.56" filterUnits="userSpaceOnUse" color-interpolation-filters="sRGB">
<feFlood flood-opacity="0" result="BackgroundImageFix"/>
<feColorMatrix in="SourceAlpha" type="matrix" values="0 0 0 0 0 0 0 0 0 0 0 0 0 0 0 0 0 0 127 0" result="hardAlpha"/>
<feOffset dy="4"/>
<feGaussianBlur stdDeviation="2"/>
<feComposite in2="hardAlpha" operator="out"/>
<feColorMatrix type="matrix" values="0 0 0 0 0 0 0 0 0 0 0 0 0 0 0 0 0 0 0.25 0"/>
<feBlend mode="normal" in2="BackgroundImageFix" result="effect1_dropShadow_104_4"/>
<feBlend mode="normal" in="SourceGraphic" in2="effect1_dropShadow_104_4" result="shape"/>
</filter>
<clipPath id="clip0_104_4">
<rect width="231" height="150" fill="white"/>
</clipPath>
</defs>
</svg>
