<svg width="231" height="150" viewBox="0 0 231 150" fill="none" xmlns="http://www.w3.org/2000/svg">
<g clip-path="url(#clip0_101_46)">
<path d="M41.2703 121.28C37.257 121.28 35.2503 120.487 35.2503 118.9C35.2503 118.62 35.297 118.34 35.3903 118.06C35.4836 117.687 35.577 117.313 35.6703 116.94L68.8503 24.96C69.317 23.4667 71.1836 22.72 74.4503 22.72H78.5103C81.777 22.72 83.6436 23.4667 84.1103 24.96L117.29 117.08C117.57 117.733 117.71 118.34 117.71 118.9C117.71 120.487 115.704 121.28 111.69 121.28H110.57C109.17 121.28 107.957 121.14 106.93 120.86C105.904 120.487 105.25 119.88 104.97 119.04L96.7103 96.08H55.5503L47.5703 119.04C47.2903 119.88 46.637 120.487 45.6103 120.86C44.5836 121.14 43.3703 121.28 41.9703 121.28H41.2703ZM59.4703 85.44H92.9303L78.2303 43.72C77.857 42.4133 77.5303 41.06 77.2503 39.66C76.9703 38.26 76.737 36.9067 76.5503 35.6H76.2703C75.9903 36.9067 75.6636 38.26 75.2903 39.66C75.0103 41.06 74.637 42.4133 74.1703 43.72L59.4703 85.44Z" fill="#ffffff"/>
<path d="M154.155 121.84C147.342 121.84 141.649 120.16 137.075 116.8C132.502 113.347 130.215 108.027 130.215 100.84C130.215 94.96 131.615 90.34 134.415 86.98C137.215 83.5267 140.902 81.0067 145.475 79.42C150.049 77.74 155.042 76.6667 160.455 76.2C165.962 75.7333 171.375 75.4533 176.695 75.36V68.78C176.695 65.6067 175.575 62.8533 173.335 60.52C171.095 58.1867 167.082 57.02 161.295 57.02C157.095 57.02 153.409 57.5333 150.235 58.56C147.155 59.4933 144.682 60.4733 142.815 61.5C141.042 62.4333 139.922 62.9 139.455 62.9C138.802 62.9 138.102 62.4333 137.355 61.5C136.609 60.5667 135.955 59.54 135.395 58.42C134.835 57.2067 134.555 56.3667 134.555 55.9C134.555 54.6867 135.769 53.38 138.195 51.98C140.622 50.58 143.842 49.4133 147.855 48.48C151.869 47.4533 156.209 46.94 160.875 46.94C166.662 46.94 171.609 47.8267 175.715 49.6C179.822 51.28 182.949 53.7533 185.095 57.02C187.335 60.2867 188.455 64.2533 188.455 68.92V100.28C188.455 104.107 188.595 107.28 188.875 109.8C189.155 112.32 189.435 114.233 189.715 115.54C189.995 116.847 190.135 117.64 190.135 117.92C190.135 118.573 189.809 119.133 189.155 119.6C188.595 119.973 187.895 120.3 187.055 120.58C186.215 120.767 185.375 120.907 184.535 121C183.695 121.093 183.042 121.14 182.575 121.14C181.455 121.14 180.569 120.627 179.915 119.6C179.355 118.48 178.889 117.173 178.515 115.68C178.235 114.093 177.955 112.647 177.675 111.34C175.902 113.3 173.849 115.073 171.515 116.66C169.182 118.247 166.569 119.507 163.675 120.44C160.875 121.373 157.702 121.84 154.155 121.84ZM154.715 111.62C159.849 111.62 164.095 110.64 167.455 108.68C170.815 106.72 173.895 104.48 176.695 101.96V85.44C173.055 85.44 169.275 85.58 165.355 85.86C161.435 86.0467 157.749 86.56 154.295 87.4C150.842 88.24 148.042 89.6867 145.895 91.74C143.842 93.7 142.815 96.5 142.815 100.14C142.815 103.873 143.795 106.72 145.755 108.68C147.809 110.64 150.795 111.62 154.715 111.62Z" fill="#ffffff"/>
</g>
<defs>
<clipPath id="clip0_101_46">
<rect width="231" height="150" fill="white"/>
</clipPath>
</defs>
</svg>
