<svg width="231" height="150" viewBox="0 0 231 150" fill="none" xmlns="http://www.w3.org/2000/svg">
<g clip-path="url(#clip0_101_38)">
<path d="M152.474 36.24L151.174 87.72C151.174 97.4267 148.054 105.747 141.814 112.68C135.661 119.527 126.864 122.95 115.424 122.95C103.984 122.95 95.1443 119.527 88.9043 112.68C82.751 105.833 79.6743 97.5567 79.6743 87.85L78.3743 36.37C78.3743 26.9233 81.6677 22.2 88.2543 22.2C94.841 22.2 98.1343 26.9233 98.1343 36.37L97.2243 78.1C97.2243 91.88 100.258 100.633 106.324 104.36C108.838 105.833 111.871 106.57 115.424 106.57C119.064 106.57 122.098 105.833 124.524 104.36C127.038 102.8 128.901 100.633 130.114 97.86C132.454 92.66 133.624 86.03 133.624 77.97L132.714 36.24C132.714 26.7933 136.008 22.07 142.594 22.07C149.181 22.07 152.474 26.7933 152.474 36.24Z" fill="#ffffff"/>
<rect x="76" y="127" width="79" height="9" rx="4.5" fill="#ffffff"/>
</g>
<defs>
<clipPath id="clip0_101_38">
<rect width="231" height="150" fill="white"/>
</clipPath>
</defs>
</svg>
